<mxfile host="app.diagrams.net" modified="2024-03-25T03:38:22.126Z" agent="Mozilla/5.0 (Windows NT 10.0; Win64; x64) AppleWebKit/537.36 (KHTML, like Gecko) Chrome/123.0.0.0 Safari/537.36" etag="MJ2Dk7dXV3Eoj2dVzpHE" version="24.1.0" type="device">
  <diagram id="C5RBs43oDa-KdzZeNtuy" name="Page-1">
    <mxGraphModel dx="1760" dy="920" grid="1" gridSize="10" guides="1" tooltips="1" connect="1" arrows="1" fold="1" page="1" pageScale="1" pageWidth="1200" pageHeight="1000" math="0" shadow="0">
      <root>
        <mxCell id="WIyWlLk6GJQsqaUBKTNV-0" />
        <mxCell id="WIyWlLk6GJQsqaUBKTNV-1" parent="WIyWlLk6GJQsqaUBKTNV-0" />
        <mxCell id="rKdaXFloPdclXVX59-gg-88" style="edgeStyle=orthogonalEdgeStyle;rounded=0;orthogonalLoop=1;jettySize=auto;html=1;endArrow=open;endFill=0;startSize=0;endSize=10;" parent="WIyWlLk6GJQsqaUBKTNV-1" source="zkfFHV4jXpPFQw0GAbJ--0" target="rKdaXFloPdclXVX59-gg-0" edge="1">
          <mxGeometry relative="1" as="geometry" />
        </mxCell>
        <mxCell id="zkfFHV4jXpPFQw0GAbJ--0" value="Person" style="swimlane;fontStyle=1;align=center;verticalAlign=top;childLayout=stackLayout;horizontal=1;startSize=26;horizontalStack=0;resizeParent=1;resizeLast=0;collapsible=1;marginBottom=0;rounded=0;shadow=0;strokeWidth=1;" parent="WIyWlLk6GJQsqaUBKTNV-1" vertex="1">
          <mxGeometry x="320" y="160" width="160" height="86" as="geometry">
            <mxRectangle x="230" y="140" width="160" height="26" as="alternateBounds" />
          </mxGeometry>
        </mxCell>
        <mxCell id="zkfFHV4jXpPFQw0GAbJ--1" value="- name: String" style="text;align=left;verticalAlign=top;spacingLeft=4;spacingRight=4;overflow=hidden;rotatable=0;points=[[0,0.5],[1,0.5]];portConstraint=eastwest;" parent="zkfFHV4jXpPFQw0GAbJ--0" vertex="1">
          <mxGeometry y="26" width="160" height="26" as="geometry" />
        </mxCell>
        <mxCell id="zkfFHV4jXpPFQw0GAbJ--2" value="- id: String" style="text;align=left;verticalAlign=top;spacingLeft=4;spacingRight=4;overflow=hidden;rotatable=0;points=[[0,0.5],[1,0.5]];portConstraint=eastwest;rounded=0;shadow=0;html=0;" parent="zkfFHV4jXpPFQw0GAbJ--0" vertex="1">
          <mxGeometry y="52" width="160" height="26" as="geometry" />
        </mxCell>
        <mxCell id="zkfFHV4jXpPFQw0GAbJ--4" value="" style="line;html=1;strokeWidth=1;align=left;verticalAlign=middle;spacingTop=-1;spacingLeft=3;spacingRight=3;rotatable=0;labelPosition=right;points=[];portConstraint=eastwest;" parent="zkfFHV4jXpPFQw0GAbJ--0" vertex="1">
          <mxGeometry y="78" width="160" height="8" as="geometry" />
        </mxCell>
        <mxCell id="zkfFHV4jXpPFQw0GAbJ--6" value="Employee" style="swimlane;fontStyle=1;align=center;verticalAlign=top;childLayout=stackLayout;horizontal=1;startSize=26;horizontalStack=0;resizeParent=1;resizeLast=0;collapsible=1;marginBottom=0;rounded=0;shadow=0;strokeWidth=1;" parent="WIyWlLk6GJQsqaUBKTNV-1" vertex="1">
          <mxGeometry x="220" y="390" width="160" height="110" as="geometry">
            <mxRectangle x="130" y="380" width="160" height="26" as="alternateBounds" />
          </mxGeometry>
        </mxCell>
        <mxCell id="zkfFHV4jXpPFQw0GAbJ--8" value="- position: String" style="text;align=left;verticalAlign=top;spacingLeft=4;spacingRight=4;overflow=hidden;rotatable=0;points=[[0,0.5],[1,0.5]];portConstraint=eastwest;rounded=0;shadow=0;html=0;" parent="zkfFHV4jXpPFQw0GAbJ--6" vertex="1">
          <mxGeometry y="26" width="160" height="26" as="geometry" />
        </mxCell>
        <mxCell id="rKdaXFloPdclXVX59-gg-34" value="- location : String" style="text;strokeColor=none;fillColor=none;align=left;verticalAlign=top;spacingLeft=4;spacingRight=4;overflow=hidden;rotatable=0;points=[[0,0.5],[1,0.5]];portConstraint=eastwest;whiteSpace=wrap;html=1;" parent="zkfFHV4jXpPFQw0GAbJ--6" vertex="1">
          <mxGeometry y="52" width="160" height="26" as="geometry" />
        </mxCell>
        <mxCell id="zkfFHV4jXpPFQw0GAbJ--7" value="- shift: String" style="text;align=left;verticalAlign=top;spacingLeft=4;spacingRight=4;overflow=hidden;rotatable=0;points=[[0,0.5],[1,0.5]];portConstraint=eastwest;" parent="zkfFHV4jXpPFQw0GAbJ--6" vertex="1">
          <mxGeometry y="78" width="160" height="24" as="geometry" />
        </mxCell>
        <mxCell id="zkfFHV4jXpPFQw0GAbJ--9" value="" style="line;html=1;strokeWidth=1;align=left;verticalAlign=middle;spacingTop=-1;spacingLeft=3;spacingRight=3;rotatable=0;labelPosition=right;points=[];portConstraint=eastwest;" parent="zkfFHV4jXpPFQw0GAbJ--6" vertex="1">
          <mxGeometry y="102" width="160" height="8" as="geometry" />
        </mxCell>
        <mxCell id="zkfFHV4jXpPFQw0GAbJ--12" value="" style="endArrow=block;endSize=10;endFill=0;shadow=0;strokeWidth=1;rounded=0;curved=0;edgeStyle=elbowEdgeStyle;elbow=vertical;" parent="WIyWlLk6GJQsqaUBKTNV-1" source="zkfFHV4jXpPFQw0GAbJ--6" target="zkfFHV4jXpPFQw0GAbJ--0" edge="1">
          <mxGeometry width="160" relative="1" as="geometry">
            <mxPoint x="300" y="233" as="sourcePoint" />
            <mxPoint x="300" y="233" as="targetPoint" />
          </mxGeometry>
        </mxCell>
        <mxCell id="rKdaXFloPdclXVX59-gg-95" style="edgeStyle=orthogonalEdgeStyle;rounded=0;orthogonalLoop=1;jettySize=auto;html=1;endArrow=diamondThin;endFill=1;startSize=0;endSize=20;" parent="WIyWlLk6GJQsqaUBKTNV-1" source="rKdaXFloPdclXVX59-gg-89" target="zkfFHV4jXpPFQw0GAbJ--13" edge="1">
          <mxGeometry relative="1" as="geometry" />
        </mxCell>
        <mxCell id="zkfFHV4jXpPFQw0GAbJ--13" value="Guest" style="swimlane;fontStyle=1;align=center;verticalAlign=top;childLayout=stackLayout;horizontal=1;startSize=26;horizontalStack=0;resizeParent=1;resizeLast=0;collapsible=1;marginBottom=0;rounded=0;shadow=0;strokeWidth=1;" parent="WIyWlLk6GJQsqaUBKTNV-1" vertex="1">
          <mxGeometry x="410" y="363" width="160" height="164" as="geometry">
            <mxRectangle x="340" y="380" width="170" height="26" as="alternateBounds" />
          </mxGeometry>
        </mxCell>
        <mxCell id="rKdaXFloPdclXVX59-gg-36" value="- phoneNo: String" style="text;strokeColor=none;fillColor=none;align=left;verticalAlign=top;spacingLeft=4;spacingRight=4;overflow=hidden;rotatable=0;points=[[0,0.5],[1,0.5]];portConstraint=eastwest;whiteSpace=wrap;html=1;" parent="zkfFHV4jXpPFQw0GAbJ--13" vertex="1">
          <mxGeometry y="26" width="160" height="26" as="geometry" />
        </mxCell>
        <mxCell id="rKdaXFloPdclXVX59-gg-39" value="- address: String" style="text;strokeColor=none;fillColor=none;align=left;verticalAlign=top;spacingLeft=4;spacingRight=4;overflow=hidden;rotatable=0;points=[[0,0.5],[1,0.5]];portConstraint=eastwest;whiteSpace=wrap;html=1;" parent="zkfFHV4jXpPFQw0GAbJ--13" vertex="1">
          <mxGeometry y="52" width="160" height="26" as="geometry" />
        </mxCell>
        <mxCell id="rKdaXFloPdclXVX59-gg-35" value="- roomNo: String" style="text;strokeColor=none;fillColor=none;align=left;verticalAlign=top;spacingLeft=4;spacingRight=4;overflow=hidden;rotatable=0;points=[[0,0.5],[1,0.5]];portConstraint=eastwest;whiteSpace=wrap;html=1;" parent="zkfFHV4jXpPFQw0GAbJ--13" vertex="1">
          <mxGeometry y="78" width="160" height="26" as="geometry" />
        </mxCell>
        <mxCell id="zkfFHV4jXpPFQw0GAbJ--15" value="" style="line;html=1;strokeWidth=1;align=left;verticalAlign=middle;spacingTop=-1;spacingLeft=3;spacingRight=3;rotatable=0;labelPosition=right;points=[];portConstraint=eastwest;" parent="zkfFHV4jXpPFQw0GAbJ--13" vertex="1">
          <mxGeometry y="104" width="160" height="8" as="geometry" />
        </mxCell>
        <mxCell id="J3CVPb86uNjHVDzg0pc1-16" value="+ checkIn(): void" style="text;strokeColor=none;fillColor=none;align=left;verticalAlign=top;spacingLeft=4;spacingRight=4;overflow=hidden;rotatable=0;points=[[0,0.5],[1,0.5]];portConstraint=eastwest;whiteSpace=wrap;html=1;" vertex="1" parent="zkfFHV4jXpPFQw0GAbJ--13">
          <mxGeometry y="112" width="160" height="26" as="geometry" />
        </mxCell>
        <mxCell id="J3CVPb86uNjHVDzg0pc1-17" value="+ requestFood(): void" style="text;strokeColor=none;fillColor=none;align=left;verticalAlign=top;spacingLeft=4;spacingRight=4;overflow=hidden;rotatable=0;points=[[0,0.5],[1,0.5]];portConstraint=eastwest;whiteSpace=wrap;html=1;" vertex="1" parent="zkfFHV4jXpPFQw0GAbJ--13">
          <mxGeometry y="138" width="160" height="26" as="geometry" />
        </mxCell>
        <mxCell id="zkfFHV4jXpPFQw0GAbJ--16" value="" style="endArrow=block;endSize=10;endFill=0;shadow=0;strokeWidth=1;rounded=0;curved=0;edgeStyle=elbowEdgeStyle;elbow=vertical;" parent="WIyWlLk6GJQsqaUBKTNV-1" source="zkfFHV4jXpPFQw0GAbJ--13" target="zkfFHV4jXpPFQw0GAbJ--0" edge="1">
          <mxGeometry width="160" relative="1" as="geometry">
            <mxPoint x="310" y="403" as="sourcePoint" />
            <mxPoint x="410" y="301" as="targetPoint" />
          </mxGeometry>
        </mxCell>
        <mxCell id="zkfFHV4jXpPFQw0GAbJ--17" value="Shift" style="swimlane;fontStyle=1;align=center;verticalAlign=top;childLayout=stackLayout;horizontal=1;startSize=26;horizontalStack=0;resizeParent=1;resizeLast=0;collapsible=1;marginBottom=0;rounded=0;shadow=0;strokeWidth=1;" parent="WIyWlLk6GJQsqaUBKTNV-1" vertex="1">
          <mxGeometry x="60" y="65" width="180" height="298" as="geometry">
            <mxRectangle x="550" y="140" width="160" height="26" as="alternateBounds" />
          </mxGeometry>
        </mxCell>
        <mxCell id="zkfFHV4jXpPFQw0GAbJ--18" value="- availableCustomShifts: ArrayList&lt;String&gt; " style="text;align=left;verticalAlign=middle;spacingLeft=4;spacingRight=4;overflow=hidden;rotatable=0;points=[[0,0.5],[1,0.5]];portConstraint=eastwest;fillColor=none;whiteSpace=wrap;" parent="zkfFHV4jXpPFQw0GAbJ--17" vertex="1">
          <mxGeometry y="26" width="180" height="36" as="geometry" />
        </mxCell>
        <mxCell id="zkfFHV4jXpPFQw0GAbJ--19" value="- availableShifts:  ArrayList&lt;String&gt;" style="text;align=left;verticalAlign=middle;spacingLeft=4;spacingRight=4;overflow=hidden;rotatable=0;points=[[0,0.5],[1,0.5]];portConstraint=eastwest;rounded=0;shadow=0;whiteSpace=wrap;" parent="zkfFHV4jXpPFQw0GAbJ--17" vertex="1">
          <mxGeometry y="62" width="180" height="36" as="geometry" />
        </mxCell>
        <mxCell id="zkfFHV4jXpPFQw0GAbJ--20" value="- assignedShifts:  ArrayList&lt;Employee&gt;" style="text;align=left;verticalAlign=middle;spacingLeft=4;spacingRight=4;overflow=hidden;rotatable=0;points=[[0,0.5],[1,0.5]];portConstraint=eastwest;rounded=0;shadow=0;whiteSpace=wrap;" parent="zkfFHV4jXpPFQw0GAbJ--17" vertex="1">
          <mxGeometry y="98" width="180" height="36" as="geometry" />
        </mxCell>
        <mxCell id="zkfFHV4jXpPFQw0GAbJ--23" value="" style="line;html=1;strokeWidth=1;align=left;verticalAlign=middle;spacingTop=-1;spacingLeft=3;spacingRight=3;rotatable=0;labelPosition=right;points=[];portConstraint=eastwest;" parent="zkfFHV4jXpPFQw0GAbJ--17" vertex="1">
          <mxGeometry y="134" width="180" height="8" as="geometry" />
        </mxCell>
        <mxCell id="zkfFHV4jXpPFQw0GAbJ--24" value="+ defineCustomShifts(): void" style="text;align=left;verticalAlign=top;spacingLeft=4;spacingRight=4;overflow=hidden;rotatable=0;points=[[0,0.5],[1,0.5]];portConstraint=eastwest;" parent="zkfFHV4jXpPFQw0GAbJ--17" vertex="1">
          <mxGeometry y="142" width="180" height="26" as="geometry" />
        </mxCell>
        <mxCell id="zkfFHV4jXpPFQw0GAbJ--25" value="+ defineShifts(): void" style="text;align=left;verticalAlign=top;spacingLeft=4;spacingRight=4;overflow=hidden;rotatable=0;points=[[0,0.5],[1,0.5]];portConstraint=eastwest;" parent="zkfFHV4jXpPFQw0GAbJ--17" vertex="1">
          <mxGeometry y="168" width="180" height="26" as="geometry" />
        </mxCell>
        <mxCell id="rKdaXFloPdclXVX59-gg-44" value="+ consultCustomShifts(): String" style="text;align=left;verticalAlign=top;spacingLeft=4;spacingRight=4;overflow=hidden;rotatable=0;points=[[0,0.5],[1,0.5]];portConstraint=eastwest;" parent="zkfFHV4jXpPFQw0GAbJ--17" vertex="1">
          <mxGeometry y="194" width="180" height="26" as="geometry" />
        </mxCell>
        <mxCell id="rKdaXFloPdclXVX59-gg-45" value="+ consultShifts():&amp;nbsp;&lt;span style=&quot;text-wrap: nowrap;&quot;&gt;void&lt;/span&gt;" style="text;strokeColor=none;fillColor=none;align=left;verticalAlign=top;spacingLeft=4;spacingRight=4;overflow=hidden;rotatable=0;points=[[0,0.5],[1,0.5]];portConstraint=eastwest;whiteSpace=wrap;html=1;" parent="zkfFHV4jXpPFQw0GAbJ--17" vertex="1">
          <mxGeometry y="220" width="180" height="26" as="geometry" />
        </mxCell>
        <mxCell id="rKdaXFloPdclXVX59-gg-46" value="+ assignShifts(int): void" style="text;strokeColor=none;fillColor=none;align=left;verticalAlign=top;spacingLeft=4;spacingRight=4;overflow=hidden;rotatable=0;points=[[0,0.5],[1,0.5]];portConstraint=eastwest;whiteSpace=wrap;html=1;" parent="zkfFHV4jXpPFQw0GAbJ--17" vertex="1">
          <mxGeometry y="246" width="180" height="26" as="geometry" />
        </mxCell>
        <mxCell id="rKdaXFloPdclXVX59-gg-47" value="+ showAssignedShifts(): void" style="text;strokeColor=none;fillColor=none;align=left;verticalAlign=top;spacingLeft=4;spacingRight=4;overflow=hidden;rotatable=0;points=[[0,0.5],[1,0.5]];portConstraint=eastwest;whiteSpace=wrap;html=1;" parent="zkfFHV4jXpPFQw0GAbJ--17" vertex="1">
          <mxGeometry y="272" width="180" height="26" as="geometry" />
        </mxCell>
        <mxCell id="rKdaXFloPdclXVX59-gg-0" value="&lt;b&gt;Reading&lt;/b&gt;" style="swimlane;fontStyle=0;childLayout=stackLayout;horizontal=1;startSize=30;fillColor=none;horizontalStack=0;resizeParent=1;resizeParentMax=0;resizeLast=0;collapsible=1;marginBottom=0;whiteSpace=wrap;html=1;verticalAlign=middle;" parent="WIyWlLk6GJQsqaUBKTNV-1" vertex="1">
          <mxGeometry x="550" y="65" width="190" height="276" as="geometry">
            <mxRectangle x="30" y="120" width="90" height="30" as="alternateBounds" />
          </mxGeometry>
        </mxCell>
        <mxCell id="rKdaXFloPdclXVX59-gg-11" value="" style="line;strokeWidth=1;fillColor=none;align=left;verticalAlign=middle;spacingTop=-1;spacingLeft=3;spacingRight=3;rotatable=0;labelPosition=right;points=[];portConstraint=eastwest;strokeColor=inherit;" parent="rKdaXFloPdclXVX59-gg-0" vertex="1">
          <mxGeometry y="30" width="190" height="8" as="geometry" />
        </mxCell>
        <mxCell id="rKdaXFloPdclXVX59-gg-8" value="+ readInt(String): int" style="text;strokeColor=none;fillColor=none;align=left;verticalAlign=top;spacingLeft=4;spacingRight=4;overflow=hidden;rotatable=0;points=[[0,0.5],[1,0.5]];portConstraint=eastwest;whiteSpace=wrap;html=1;" parent="rKdaXFloPdclXVX59-gg-0" vertex="1">
          <mxGeometry y="38" width="190" height="26" as="geometry" />
        </mxCell>
        <mxCell id="rKdaXFloPdclXVX59-gg-10" value="+ readIntRange(String, int, int, String): int" style="text;strokeColor=none;fillColor=none;align=left;verticalAlign=middle;spacingLeft=4;spacingRight=4;overflow=hidden;rotatable=0;points=[[0,0.5],[1,0.5]];portConstraint=eastwest;whiteSpace=wrap;html=1;" parent="rKdaXFloPdclXVX59-gg-0" vertex="1">
          <mxGeometry y="64" width="190" height="36" as="geometry" />
        </mxCell>
        <mxCell id="rKdaXFloPdclXVX59-gg-13" value="+ readAndValidateInt(String) : int" style="text;strokeColor=none;fillColor=none;align=left;verticalAlign=top;spacingLeft=4;spacingRight=4;overflow=hidden;rotatable=0;points=[[0,0.5],[1,0.5]];portConstraint=eastwest;whiteSpace=wrap;html=1;" parent="rKdaXFloPdclXVX59-gg-0" vertex="1">
          <mxGeometry y="100" width="190" height="26" as="geometry" />
        </mxCell>
        <mxCell id="rKdaXFloPdclXVX59-gg-17" value="+ readFloat(String): Float" style="text;strokeColor=none;fillColor=none;align=left;verticalAlign=top;spacingLeft=4;spacingRight=4;overflow=hidden;rotatable=0;points=[[0,0.5],[1,0.5]];portConstraint=eastwest;whiteSpace=wrap;html=1;" parent="rKdaXFloPdclXVX59-gg-0" vertex="1">
          <mxGeometry y="126" width="190" height="26" as="geometry" />
        </mxCell>
        <mxCell id="rKdaXFloPdclXVX59-gg-12" value="+ readFloatRange(String, Float, Float): Float" style="text;strokeColor=none;fillColor=none;align=left;verticalAlign=middle;spacingLeft=4;spacingRight=4;overflow=hidden;rotatable=0;points=[[0,0.5],[1,0.5]];portConstraint=eastwest;whiteSpace=wrap;html=1;" parent="rKdaXFloPdclXVX59-gg-0" vertex="1">
          <mxGeometry y="152" width="190" height="36" as="geometry" />
        </mxCell>
        <mxCell id="rKdaXFloPdclXVX59-gg-18" value="+ readDouble(String): Double" style="text;strokeColor=none;fillColor=none;align=left;verticalAlign=top;spacingLeft=4;spacingRight=4;overflow=hidden;rotatable=0;points=[[0,0.5],[1,0.5]];portConstraint=eastwest;whiteSpace=wrap;html=1;" parent="rKdaXFloPdclXVX59-gg-0" vertex="1">
          <mxGeometry y="188" width="190" height="26" as="geometry" />
        </mxCell>
        <mxCell id="rKdaXFloPdclXVX59-gg-19" value="+ readDoubleRange(String, Double, Double): Double" style="text;strokeColor=none;fillColor=none;align=left;verticalAlign=middle;spacingLeft=4;spacingRight=4;overflow=hidden;rotatable=0;points=[[0,0.5],[1,0.5]];portConstraint=eastwest;whiteSpace=wrap;html=1;" parent="rKdaXFloPdclXVX59-gg-0" vertex="1">
          <mxGeometry y="214" width="190" height="36" as="geometry" />
        </mxCell>
        <mxCell id="rKdaXFloPdclXVX59-gg-20" value="+ readString(String): String" style="text;strokeColor=none;fillColor=none;align=left;verticalAlign=top;spacingLeft=4;spacingRight=4;overflow=hidden;rotatable=0;points=[[0,0.5],[1,0.5]];portConstraint=eastwest;whiteSpace=wrap;html=1;" parent="rKdaXFloPdclXVX59-gg-0" vertex="1">
          <mxGeometry y="250" width="190" height="26" as="geometry" />
        </mxCell>
        <mxCell id="rKdaXFloPdclXVX59-gg-41" value="" style="endArrow=diamondThin;endFill=1;endSize=20;html=1;rounded=0;entryX=-0.002;entryY=1.073;entryDx=0;entryDy=0;entryPerimeter=0;" parent="WIyWlLk6GJQsqaUBKTNV-1" source="zkfFHV4jXpPFQw0GAbJ--17" target="zkfFHV4jXpPFQw0GAbJ--8" edge="1">
          <mxGeometry width="160" relative="1" as="geometry">
            <mxPoint x="519" y="150" as="sourcePoint" />
            <mxPoint x="501" y="267" as="targetPoint" />
            <Array as="points">
              <mxPoint x="150" y="444" />
            </Array>
          </mxGeometry>
        </mxCell>
        <mxCell id="rKdaXFloPdclXVX59-gg-67" style="edgeStyle=orthogonalEdgeStyle;rounded=0;orthogonalLoop=1;jettySize=auto;html=1;endArrow=none;endFill=0;exitX=0.5;exitY=0;exitDx=0;exitDy=0;" parent="WIyWlLk6GJQsqaUBKTNV-1" source="rKdaXFloPdclXVX59-gg-48" edge="1">
          <mxGeometry relative="1" as="geometry">
            <mxPoint x="300" y="550" as="targetPoint" />
            <Array as="points">
              <mxPoint x="220" y="550" />
            </Array>
          </mxGeometry>
        </mxCell>
        <mxCell id="rKdaXFloPdclXVX59-gg-48" value="Chef" style="swimlane;fontStyle=1;align=center;verticalAlign=top;childLayout=stackLayout;horizontal=1;startSize=26;horizontalStack=0;resizeParent=1;resizeParentMax=0;resizeLast=0;collapsible=1;marginBottom=0;whiteSpace=wrap;html=1;" parent="WIyWlLk6GJQsqaUBKTNV-1" vertex="1">
          <mxGeometry x="140" y="560" width="160" height="60" as="geometry" />
        </mxCell>
        <mxCell id="rKdaXFloPdclXVX59-gg-49" value="- nationality: String" style="text;strokeColor=none;fillColor=none;align=left;verticalAlign=top;spacingLeft=4;spacingRight=4;overflow=hidden;rotatable=0;points=[[0,0.5],[1,0.5]];portConstraint=eastwest;whiteSpace=wrap;html=1;" parent="rKdaXFloPdclXVX59-gg-48" vertex="1">
          <mxGeometry y="26" width="160" height="26" as="geometry" />
        </mxCell>
        <mxCell id="rKdaXFloPdclXVX59-gg-50" value="" style="line;strokeWidth=1;fillColor=none;align=left;verticalAlign=middle;spacingTop=-1;spacingLeft=3;spacingRight=3;rotatable=0;labelPosition=right;points=[];portConstraint=eastwest;strokeColor=inherit;" parent="rKdaXFloPdclXVX59-gg-48" vertex="1">
          <mxGeometry y="52" width="160" height="8" as="geometry" />
        </mxCell>
        <mxCell id="rKdaXFloPdclXVX59-gg-52" value="Housekeeping" style="swimlane;fontStyle=1;align=center;verticalAlign=top;childLayout=stackLayout;horizontal=1;startSize=26;horizontalStack=0;resizeParent=1;resizeParentMax=0;resizeLast=0;collapsible=1;marginBottom=0;whiteSpace=wrap;html=1;" parent="WIyWlLk6GJQsqaUBKTNV-1" vertex="1">
          <mxGeometry x="354" y="770" width="206" height="96" as="geometry" />
        </mxCell>
        <mxCell id="rKdaXFloPdclXVX59-gg-54" value="" style="line;strokeWidth=1;fillColor=none;align=left;verticalAlign=middle;spacingTop=-1;spacingLeft=3;spacingRight=3;rotatable=0;labelPosition=right;points=[];portConstraint=eastwest;strokeColor=inherit;" parent="rKdaXFloPdclXVX59-gg-52" vertex="1">
          <mxGeometry y="26" width="206" height="8" as="geometry" />
        </mxCell>
        <mxCell id="v0qUassG2nzmkQ5IIfUO-0" value="+ manageCleaning(Housekeeping): void" style="text;strokeColor=none;fillColor=none;align=left;verticalAlign=top;spacingLeft=4;spacingRight=4;overflow=hidden;rotatable=0;points=[[0,0.5],[1,0.5]];portConstraint=eastwest;whiteSpace=wrap;html=1;" parent="rKdaXFloPdclXVX59-gg-52" vertex="1">
          <mxGeometry y="34" width="206" height="36" as="geometry" />
        </mxCell>
        <mxCell id="rKdaXFloPdclXVX59-gg-55" value="+ cleanRoom(String): void" style="text;strokeColor=none;fillColor=none;align=left;verticalAlign=top;spacingLeft=4;spacingRight=4;overflow=hidden;rotatable=0;points=[[0,0.5],[1,0.5]];portConstraint=eastwest;whiteSpace=wrap;html=1;" parent="rKdaXFloPdclXVX59-gg-52" vertex="1">
          <mxGeometry y="70" width="206" height="26" as="geometry" />
        </mxCell>
        <mxCell id="rKdaXFloPdclXVX59-gg-56" value="Manager" style="swimlane;fontStyle=1;align=center;verticalAlign=top;childLayout=stackLayout;horizontal=1;startSize=26;horizontalStack=0;resizeParent=1;resizeParentMax=0;resizeLast=0;collapsible=1;marginBottom=0;whiteSpace=wrap;html=1;" parent="WIyWlLk6GJQsqaUBKTNV-1" vertex="1">
          <mxGeometry x="400" y="567" width="170" height="138" as="geometry" />
        </mxCell>
        <mxCell id="rKdaXFloPdclXVX59-gg-57" value="- phoneNo: String" style="text;strokeColor=none;fillColor=none;align=left;verticalAlign=top;spacingLeft=4;spacingRight=4;overflow=hidden;rotatable=0;points=[[0,0.5],[1,0.5]];portConstraint=eastwest;whiteSpace=wrap;html=1;" parent="rKdaXFloPdclXVX59-gg-56" vertex="1">
          <mxGeometry y="26" width="170" height="26" as="geometry" />
        </mxCell>
        <mxCell id="rKdaXFloPdclXVX59-gg-58" value="" style="line;strokeWidth=1;fillColor=none;align=left;verticalAlign=middle;spacingTop=-1;spacingLeft=3;spacingRight=3;rotatable=0;labelPosition=right;points=[];portConstraint=eastwest;strokeColor=inherit;" parent="rKdaXFloPdclXVX59-gg-56" vertex="1">
          <mxGeometry y="52" width="170" height="8" as="geometry" />
        </mxCell>
        <mxCell id="rKdaXFloPdclXVX59-gg-59" value="+ manageStaff(): void" style="text;strokeColor=none;fillColor=none;align=left;verticalAlign=top;spacingLeft=4;spacingRight=4;overflow=hidden;rotatable=0;points=[[0,0.5],[1,0.5]];portConstraint=eastwest;whiteSpace=wrap;html=1;" parent="rKdaXFloPdclXVX59-gg-56" vertex="1">
          <mxGeometry y="60" width="170" height="26" as="geometry" />
        </mxCell>
        <mxCell id="rKdaXFloPdclXVX59-gg-83" value="+ recordComplaints(): void" style="text;strokeColor=none;fillColor=none;align=left;verticalAlign=top;spacingLeft=4;spacingRight=4;overflow=hidden;rotatable=0;points=[[0,0.5],[1,0.5]];portConstraint=eastwest;whiteSpace=wrap;html=1;" parent="rKdaXFloPdclXVX59-gg-56" vertex="1">
          <mxGeometry y="86" width="170" height="26" as="geometry" />
        </mxCell>
        <mxCell id="rKdaXFloPdclXVX59-gg-84" value="+ purchaseInventory(): void" style="text;strokeColor=none;fillColor=none;align=left;verticalAlign=top;spacingLeft=4;spacingRight=4;overflow=hidden;rotatable=0;points=[[0,0.5],[1,0.5]];portConstraint=eastwest;whiteSpace=wrap;html=1;" parent="rKdaXFloPdclXVX59-gg-56" vertex="1">
          <mxGeometry y="112" width="170" height="26" as="geometry" />
        </mxCell>
        <mxCell id="rKdaXFloPdclXVX59-gg-63" value="" style="endArrow=none;html=1;edgeStyle=orthogonalEdgeStyle;rounded=0;entryX=0.5;entryY=0;entryDx=0;entryDy=0;exitX=0.5;exitY=1;exitDx=0;exitDy=0;startArrow=block;startFill=0;endSize=0;jumpSize=6;startSize=10;" parent="WIyWlLk6GJQsqaUBKTNV-1" source="zkfFHV4jXpPFQw0GAbJ--6" target="rKdaXFloPdclXVX59-gg-52" edge="1">
          <mxGeometry relative="1" as="geometry">
            <mxPoint x="300" y="490" as="sourcePoint" />
            <mxPoint x="460" y="490" as="targetPoint" />
            <Array as="points">
              <mxPoint x="300" y="550" />
              <mxPoint x="380" y="550" />
              <mxPoint x="380" y="720" />
              <mxPoint x="457" y="720" />
            </Array>
          </mxGeometry>
        </mxCell>
        <mxCell id="rKdaXFloPdclXVX59-gg-66" value="" style="endArrow=none;html=1;edgeStyle=orthogonalEdgeStyle;rounded=0;entryX=0.5;entryY=0;entryDx=0;entryDy=0;" parent="WIyWlLk6GJQsqaUBKTNV-1" target="rKdaXFloPdclXVX59-gg-56" edge="1">
          <mxGeometry relative="1" as="geometry">
            <mxPoint x="300" y="550" as="sourcePoint" />
            <mxPoint x="450" y="610" as="targetPoint" />
          </mxGeometry>
        </mxCell>
        <mxCell id="rKdaXFloPdclXVX59-gg-77" style="edgeStyle=orthogonalEdgeStyle;rounded=0;orthogonalLoop=1;jettySize=auto;html=1;exitX=0.5;exitY=0;exitDx=0;exitDy=0;endArrow=none;endFill=0;" parent="WIyWlLk6GJQsqaUBKTNV-1" source="rKdaXFloPdclXVX59-gg-69" edge="1">
          <mxGeometry relative="1" as="geometry">
            <mxPoint x="400.1111111111111" y="550" as="targetPoint" />
            <Array as="points">
              <mxPoint x="235" y="670" />
              <mxPoint x="235" y="650" />
              <mxPoint x="320" y="650" />
              <mxPoint x="320" y="550" />
            </Array>
          </mxGeometry>
        </mxCell>
        <mxCell id="rKdaXFloPdclXVX59-gg-69" value="Recepcionist" style="swimlane;fontStyle=1;align=center;verticalAlign=middle;childLayout=stackLayout;horizontal=1;startSize=26;horizontalStack=0;resizeParent=1;resizeParentMax=0;resizeLast=0;collapsible=1;marginBottom=0;whiteSpace=wrap;html=1;" parent="WIyWlLk6GJQsqaUBKTNV-1" vertex="1">
          <mxGeometry x="160" y="670" width="170" height="258" as="geometry" />
        </mxCell>
        <mxCell id="rKdaXFloPdclXVX59-gg-70" value="- phoneNo: String" style="text;strokeColor=none;fillColor=none;align=left;verticalAlign=top;spacingLeft=4;spacingRight=4;overflow=hidden;rotatable=0;points=[[0,0.5],[1,0.5]];portConstraint=eastwest;whiteSpace=wrap;html=1;" parent="rKdaXFloPdclXVX59-gg-69" vertex="1">
          <mxGeometry y="26" width="170" height="26" as="geometry" />
        </mxCell>
        <mxCell id="rKdaXFloPdclXVX59-gg-71" value="" style="line;strokeWidth=1;fillColor=none;align=left;verticalAlign=middle;spacingTop=-1;spacingLeft=3;spacingRight=3;rotatable=0;labelPosition=right;points=[];portConstraint=eastwest;strokeColor=inherit;" parent="rKdaXFloPdclXVX59-gg-69" vertex="1">
          <mxGeometry y="52" width="170" height="8" as="geometry" />
        </mxCell>
        <mxCell id="rKdaXFloPdclXVX59-gg-72" value="+ checkRoom(): void" style="text;strokeColor=none;fillColor=none;align=left;verticalAlign=top;spacingLeft=4;spacingRight=4;overflow=hidden;rotatable=0;points=[[0,0.5],[1,0.5]];portConstraint=eastwest;whiteSpace=wrap;html=1;" parent="rKdaXFloPdclXVX59-gg-69" vertex="1">
          <mxGeometry y="60" width="170" height="26" as="geometry" />
        </mxCell>
        <mxCell id="SCCpibuGfQsKM6KUZBpz-2" value="+ checkRoomAvailability: void" style="text;strokeColor=none;fillColor=none;align=left;verticalAlign=middle;spacingLeft=4;spacingRight=4;overflow=hidden;rotatable=0;points=[[0,0.5],[1,0.5]];portConstraint=eastwest;whiteSpace=wrap;html=1;" parent="rKdaXFloPdclXVX59-gg-69" vertex="1">
          <mxGeometry y="86" width="170" height="34" as="geometry" />
        </mxCell>
        <mxCell id="SCCpibuGfQsKM6KUZBpz-3" value="+ registerGuest(String): void" style="text;strokeColor=none;fillColor=none;align=left;verticalAlign=middle;spacingLeft=4;spacingRight=4;overflow=hidden;rotatable=0;points=[[0,0.5],[1,0.5]];portConstraint=eastwest;whiteSpace=wrap;html=1;" parent="rKdaXFloPdclXVX59-gg-69" vertex="1">
          <mxGeometry y="120" width="170" height="30" as="geometry" />
        </mxCell>
        <mxCell id="SCCpibuGfQsKM6KUZBpz-4" value="+ registerTeam(String): void" style="text;strokeColor=none;fillColor=none;align=left;verticalAlign=middle;spacingLeft=4;spacingRight=4;overflow=hidden;rotatable=0;points=[[0,0.5],[1,0.5]];portConstraint=eastwest;whiteSpace=wrap;html=1;" parent="rKdaXFloPdclXVX59-gg-69" vertex="1">
          <mxGeometry y="150" width="170" height="30" as="geometry" />
        </mxCell>
        <mxCell id="rKdaXFloPdclXVX59-gg-78" value="+ bookRoom(): void" style="text;strokeColor=none;fillColor=none;align=left;verticalAlign=top;spacingLeft=4;spacingRight=4;overflow=hidden;rotatable=0;points=[[0,0.5],[1,0.5]];portConstraint=eastwest;whiteSpace=wrap;html=1;" parent="rKdaXFloPdclXVX59-gg-69" vertex="1">
          <mxGeometry y="180" width="170" height="26" as="geometry" />
        </mxCell>
        <mxCell id="rKdaXFloPdclXVX59-gg-80" value="+ generateBill(): void" style="text;strokeColor=none;fillColor=none;align=left;verticalAlign=top;spacingLeft=4;spacingRight=4;overflow=hidden;rotatable=0;points=[[0,0.5],[1,0.5]];portConstraint=eastwest;whiteSpace=wrap;html=1;" parent="rKdaXFloPdclXVX59-gg-69" vertex="1">
          <mxGeometry y="206" width="170" height="26" as="geometry" />
        </mxCell>
        <mxCell id="rKdaXFloPdclXVX59-gg-79" value="+ acceptCustomer(): void" style="text;strokeColor=none;fillColor=none;align=left;verticalAlign=top;spacingLeft=4;spacingRight=4;overflow=hidden;rotatable=0;points=[[0,0.5],[1,0.5]];portConstraint=eastwest;whiteSpace=wrap;html=1;" parent="rKdaXFloPdclXVX59-gg-69" vertex="1">
          <mxGeometry y="232" width="170" height="26" as="geometry" />
        </mxCell>
        <mxCell id="SCCpibuGfQsKM6KUZBpz-14" style="edgeStyle=orthogonalEdgeStyle;rounded=0;orthogonalLoop=1;jettySize=auto;html=1;startSize=0;endSize=20;endArrow=diamondThin;endFill=1;" parent="WIyWlLk6GJQsqaUBKTNV-1" source="rKdaXFloPdclXVX59-gg-89" target="rKdaXFloPdclXVX59-gg-97" edge="1">
          <mxGeometry relative="1" as="geometry">
            <Array as="points">
              <mxPoint x="940" y="551" />
            </Array>
          </mxGeometry>
        </mxCell>
        <mxCell id="rKdaXFloPdclXVX59-gg-89" value="Room" style="swimlane;fontStyle=1;align=center;verticalAlign=top;childLayout=stackLayout;horizontal=1;startSize=26;horizontalStack=0;resizeParent=1;resizeParentMax=0;resizeLast=0;collapsible=1;marginBottom=0;whiteSpace=wrap;html=1;" parent="WIyWlLk6GJQsqaUBKTNV-1" vertex="1">
          <mxGeometry x="710" y="400" width="160" height="268" as="geometry" />
        </mxCell>
        <mxCell id="rKdaXFloPdclXVX59-gg-90" value="- roomNo: String" style="text;strokeColor=none;fillColor=none;align=left;verticalAlign=top;spacingLeft=4;spacingRight=4;overflow=hidden;rotatable=0;points=[[0,0.5],[1,0.5]];portConstraint=eastwest;whiteSpace=wrap;html=1;" parent="rKdaXFloPdclXVX59-gg-89" vertex="1">
          <mxGeometry y="26" width="160" height="26" as="geometry" />
        </mxCell>
        <mxCell id="rKdaXFloPdclXVX59-gg-94" value="- location: String" style="text;strokeColor=none;fillColor=none;align=left;verticalAlign=top;spacingLeft=4;spacingRight=4;overflow=hidden;rotatable=0;points=[[0,0.5],[1,0.5]];portConstraint=eastwest;whiteSpace=wrap;html=1;" parent="rKdaXFloPdclXVX59-gg-89" vertex="1">
          <mxGeometry y="52" width="160" height="26" as="geometry" />
        </mxCell>
        <mxCell id="rKdaXFloPdclXVX59-gg-104" value="- type: String" style="text;strokeColor=none;fillColor=none;align=left;verticalAlign=top;spacingLeft=4;spacingRight=4;overflow=hidden;rotatable=0;points=[[0,0.5],[1,0.5]];portConstraint=eastwest;whiteSpace=wrap;html=1;" parent="rKdaXFloPdclXVX59-gg-89" vertex="1">
          <mxGeometry y="78" width="160" height="26" as="geometry" />
        </mxCell>
        <mxCell id="J3CVPb86uNjHVDzg0pc1-20" value="- capacity: int" style="text;strokeColor=none;fillColor=none;align=left;verticalAlign=top;spacingLeft=4;spacingRight=4;overflow=hidden;rotatable=0;points=[[0,0.5],[1,0.5]];portConstraint=eastwest;whiteSpace=wrap;html=1;" vertex="1" parent="rKdaXFloPdclXVX59-gg-89">
          <mxGeometry y="104" width="160" height="26" as="geometry" />
        </mxCell>
        <mxCell id="rKdaXFloPdclXVX59-gg-105" value="- clean: boolean" style="text;strokeColor=none;fillColor=none;align=left;verticalAlign=top;spacingLeft=4;spacingRight=4;overflow=hidden;rotatable=0;points=[[0,0.5],[1,0.5]];portConstraint=eastwest;whiteSpace=wrap;html=1;" parent="rKdaXFloPdclXVX59-gg-89" vertex="1">
          <mxGeometry y="130" width="160" height="26" as="geometry" />
        </mxCell>
        <mxCell id="J3CVPb86uNjHVDzg0pc1-19" value="- pricePerHour: double" style="text;strokeColor=none;fillColor=none;align=left;verticalAlign=top;spacingLeft=4;spacingRight=4;overflow=hidden;rotatable=0;points=[[0,0.5],[1,0.5]];portConstraint=eastwest;whiteSpace=wrap;html=1;" vertex="1" parent="rKdaXFloPdclXVX59-gg-89">
          <mxGeometry y="156" width="160" height="26" as="geometry" />
        </mxCell>
        <mxCell id="J3CVPb86uNjHVDzg0pc1-18" value="- pricePerFood: double" style="text;strokeColor=none;fillColor=none;align=left;verticalAlign=top;spacingLeft=4;spacingRight=4;overflow=hidden;rotatable=0;points=[[0,0.5],[1,0.5]];portConstraint=eastwest;whiteSpace=wrap;html=1;" vertex="1" parent="rKdaXFloPdclXVX59-gg-89">
          <mxGeometry y="182" width="160" height="26" as="geometry" />
        </mxCell>
        <mxCell id="rKdaXFloPdclXVX59-gg-93" value="- available: boolean" style="text;strokeColor=none;fillColor=none;align=left;verticalAlign=top;spacingLeft=4;spacingRight=4;overflow=hidden;rotatable=0;points=[[0,0.5],[1,0.5]];portConstraint=eastwest;whiteSpace=wrap;html=1;" parent="rKdaXFloPdclXVX59-gg-89" vertex="1">
          <mxGeometry y="208" width="160" height="26" as="geometry" />
        </mxCell>
        <mxCell id="rKdaXFloPdclXVX59-gg-91" value="" style="line;strokeWidth=1;fillColor=none;align=left;verticalAlign=middle;spacingTop=-1;spacingLeft=3;spacingRight=3;rotatable=0;labelPosition=right;points=[];portConstraint=eastwest;strokeColor=inherit;" parent="rKdaXFloPdclXVX59-gg-89" vertex="1">
          <mxGeometry y="234" width="160" height="8" as="geometry" />
        </mxCell>
        <mxCell id="rKdaXFloPdclXVX59-gg-92" value="+ method(type): type" style="text;strokeColor=none;fillColor=none;align=left;verticalAlign=top;spacingLeft=4;spacingRight=4;overflow=hidden;rotatable=0;points=[[0,0.5],[1,0.5]];portConstraint=eastwest;whiteSpace=wrap;html=1;" parent="rKdaXFloPdclXVX59-gg-89" vertex="1">
          <mxGeometry y="242" width="160" height="26" as="geometry" />
        </mxCell>
        <mxCell id="J3CVPb86uNjHVDzg0pc1-21" style="edgeStyle=orthogonalEdgeStyle;rounded=0;orthogonalLoop=1;jettySize=auto;html=1;endArrow=none;endFill=0;" edge="1" parent="WIyWlLk6GJQsqaUBKTNV-1" source="rKdaXFloPdclXVX59-gg-97" target="zkfFHV4jXpPFQw0GAbJ--0">
          <mxGeometry relative="1" as="geometry">
            <Array as="points">
              <mxPoint x="945" y="30" />
              <mxPoint x="400" y="30" />
            </Array>
          </mxGeometry>
        </mxCell>
        <mxCell id="rKdaXFloPdclXVX59-gg-97" value="Hotel" style="swimlane;fontStyle=1;align=center;verticalAlign=top;childLayout=stackLayout;horizontal=1;startSize=26;horizontalStack=0;resizeParent=1;resizeParentMax=0;resizeLast=0;collapsible=1;marginBottom=0;whiteSpace=wrap;html=1;" parent="WIyWlLk6GJQsqaUBKTNV-1" vertex="1">
          <mxGeometry x="850" y="60" width="190" height="304" as="geometry" />
        </mxCell>
        <mxCell id="rKdaXFloPdclXVX59-gg-98" value="- roomsList: ArrayList&amp;lt;Room&amp;gt;&amp;nbsp;" style="text;strokeColor=none;fillColor=none;align=left;verticalAlign=middle;spacingLeft=4;spacingRight=4;overflow=hidden;rotatable=0;points=[[0,0.5],[1,0.5]];portConstraint=eastwest;whiteSpace=wrap;html=1;" parent="rKdaXFloPdclXVX59-gg-97" vertex="1">
          <mxGeometry y="26" width="190" height="24" as="geometry" />
        </mxCell>
        <mxCell id="J3CVPb86uNjHVDzg0pc1-10" value="- chefList: ArrayList&amp;lt;Chef&amp;gt;" style="text;strokeColor=none;fillColor=none;align=left;verticalAlign=top;spacingLeft=4;spacingRight=4;overflow=hidden;rotatable=0;points=[[0,0.5],[1,0.5]];portConstraint=eastwest;whiteSpace=wrap;html=1;" vertex="1" parent="rKdaXFloPdclXVX59-gg-97">
          <mxGeometry y="50" width="190" height="26" as="geometry" />
        </mxCell>
        <mxCell id="J3CVPb86uNjHVDzg0pc1-11" value="- foodList: ArrayList &amp;lt;Food&amp;gt;" style="text;strokeColor=none;fillColor=none;align=left;verticalAlign=top;spacingLeft=4;spacingRight=4;overflow=hidden;rotatable=0;points=[[0,0.5],[1,0.5]];portConstraint=eastwest;whiteSpace=wrap;html=1;" vertex="1" parent="rKdaXFloPdclXVX59-gg-97">
          <mxGeometry y="76" width="190" height="26" as="geometry" />
        </mxCell>
        <mxCell id="J3CVPb86uNjHVDzg0pc1-12" value="+ availableRooms: ArrayList&amp;lt;Room&amp;gt;" style="text;strokeColor=none;fillColor=none;align=left;verticalAlign=middle;spacingLeft=4;spacingRight=4;overflow=hidden;rotatable=0;points=[[0,0.5],[1,0.5]];portConstraint=eastwest;whiteSpace=wrap;html=1;" vertex="1" parent="rKdaXFloPdclXVX59-gg-97">
          <mxGeometry y="102" width="190" height="38" as="geometry" />
        </mxCell>
        <mxCell id="rKdaXFloPdclXVX59-gg-99" value="" style="line;strokeWidth=1;fillColor=none;align=left;verticalAlign=middle;spacingTop=-1;spacingLeft=3;spacingRight=3;rotatable=0;labelPosition=right;points=[];portConstraint=eastwest;strokeColor=inherit;" parent="rKdaXFloPdclXVX59-gg-97" vertex="1">
          <mxGeometry y="140" width="190" height="8" as="geometry" />
        </mxCell>
        <mxCell id="SCCpibuGfQsKM6KUZBpz-8" value="+ assignRoom(int): Room" style="text;strokeColor=none;fillColor=none;align=left;verticalAlign=top;spacingLeft=4;spacingRight=4;overflow=hidden;rotatable=0;points=[[0,0.5],[1,0.5]];portConstraint=eastwest;whiteSpace=wrap;html=1;" parent="rKdaXFloPdclXVX59-gg-97" vertex="1">
          <mxGeometry y="148" width="190" height="26" as="geometry" />
        </mxCell>
        <mxCell id="rKdaXFloPdclXVX59-gg-100" value="+ defineRooms(): void" style="text;strokeColor=none;fillColor=none;align=left;verticalAlign=top;spacingLeft=4;spacingRight=4;overflow=hidden;rotatable=0;points=[[0,0.5],[1,0.5]];portConstraint=eastwest;whiteSpace=wrap;html=1;" parent="rKdaXFloPdclXVX59-gg-97" vertex="1">
          <mxGeometry y="174" width="190" height="26" as="geometry" />
        </mxCell>
        <mxCell id="J3CVPb86uNjHVDzg0pc1-5" value="+ defineChefList(): void" style="text;strokeColor=none;fillColor=none;align=left;verticalAlign=top;spacingLeft=4;spacingRight=4;overflow=hidden;rotatable=0;points=[[0,0.5],[1,0.5]];portConstraint=eastwest;whiteSpace=wrap;html=1;" vertex="1" parent="rKdaXFloPdclXVX59-gg-97">
          <mxGeometry y="200" width="190" height="26" as="geometry" />
        </mxCell>
        <mxCell id="J3CVPb86uNjHVDzg0pc1-13" value="+ defineFoodList(): void" style="text;strokeColor=none;fillColor=none;align=left;verticalAlign=top;spacingLeft=4;spacingRight=4;overflow=hidden;rotatable=0;points=[[0,0.5],[1,0.5]];portConstraint=eastwest;whiteSpace=wrap;html=1;" vertex="1" parent="rKdaXFloPdclXVX59-gg-97">
          <mxGeometry y="226" width="190" height="26" as="geometry" />
        </mxCell>
        <mxCell id="rKdaXFloPdclXVX59-gg-103" value="+ countAvailableRooms(): int" style="text;strokeColor=none;fillColor=none;align=left;verticalAlign=top;spacingLeft=4;spacingRight=4;overflow=hidden;rotatable=0;points=[[0,0.5],[1,0.5]];portConstraint=eastwest;whiteSpace=wrap;html=1;" parent="rKdaXFloPdclXVX59-gg-97" vertex="1">
          <mxGeometry y="252" width="190" height="26" as="geometry" />
        </mxCell>
        <mxCell id="SCCpibuGfQsKM6KUZBpz-9" value="+ getAvailableRooms(): void" style="text;strokeColor=none;fillColor=none;align=left;verticalAlign=top;spacingLeft=4;spacingRight=4;overflow=hidden;rotatable=0;points=[[0,0.5],[1,0.5]];portConstraint=eastwest;whiteSpace=wrap;html=1;" parent="rKdaXFloPdclXVX59-gg-97" vertex="1">
          <mxGeometry y="278" width="190" height="26" as="geometry" />
        </mxCell>
        <mxCell id="rKdaXFloPdclXVX59-gg-109" value="1" style="edgeLabel;resizable=0;html=1;align=left;verticalAlign=bottom;labelBackgroundColor=none;" parent="WIyWlLk6GJQsqaUBKTNV-1" connectable="0" vertex="1">
          <mxGeometry x="949.9999999999998" y="380" as="geometry" />
        </mxCell>
        <mxCell id="rKdaXFloPdclXVX59-gg-110" value="1..*" style="edgeLabel;resizable=0;html=1;align=left;verticalAlign=bottom;labelBackgroundColor=none;" parent="WIyWlLk6GJQsqaUBKTNV-1" connectable="0" vertex="1">
          <mxGeometry x="869.9999999999998" y="552" as="geometry" />
        </mxCell>
        <mxCell id="rKdaXFloPdclXVX59-gg-113" style="edgeStyle=orthogonalEdgeStyle;rounded=0;orthogonalLoop=1;jettySize=auto;html=1;endArrow=none;endFill=0;exitX=1;exitY=0.5;exitDx=0;exitDy=0;" parent="WIyWlLk6GJQsqaUBKTNV-1" source="v0qUassG2nzmkQ5IIfUO-0" target="rKdaXFloPdclXVX59-gg-89" edge="1">
          <mxGeometry relative="1" as="geometry" />
        </mxCell>
        <mxCell id="rKdaXFloPdclXVX59-gg-114" value="0..*" style="edgeLabel;resizable=0;html=1;align=left;verticalAlign=bottom;labelBackgroundColor=none;" parent="WIyWlLk6GJQsqaUBKTNV-1" connectable="0" vertex="1">
          <mxGeometry x="609.9999999999998" y="446" as="geometry" />
        </mxCell>
        <mxCell id="rKdaXFloPdclXVX59-gg-115" value="1..*" style="edgeLabel;resizable=0;html=1;align=left;verticalAlign=bottom;labelBackgroundColor=none;" parent="WIyWlLk6GJQsqaUBKTNV-1" connectable="0" vertex="1">
          <mxGeometry x="689.9999999999998" y="534" as="geometry" />
        </mxCell>
        <mxCell id="rKdaXFloPdclXVX59-gg-116" value="0..1" style="edgeLabel;resizable=0;html=1;align=left;verticalAlign=bottom;labelBackgroundColor=none;" parent="WIyWlLk6GJQsqaUBKTNV-1" connectable="0" vertex="1">
          <mxGeometry x="569.9999999999998" y="818" as="geometry" />
        </mxCell>
        <mxCell id="rKdaXFloPdclXVX59-gg-117" value="1..*" style="edgeLabel;resizable=0;html=1;align=left;verticalAlign=bottom;labelBackgroundColor=none;" parent="WIyWlLk6GJQsqaUBKTNV-1" connectable="0" vertex="1">
          <mxGeometry x="769.9999999999998" y="690" as="geometry" />
        </mxCell>
        <mxCell id="SCCpibuGfQsKM6KUZBpz-0" value="0..*" style="edgeLabel;resizable=0;html=1;align=left;verticalAlign=bottom;labelBackgroundColor=none;" parent="WIyWlLk6GJQsqaUBKTNV-1" connectable="0" vertex="1">
          <mxGeometry x="539.9999999999998" y="363" as="geometry">
            <mxPoint x="-14" y="-140" as="offset" />
          </mxGeometry>
        </mxCell>
        <mxCell id="SCCpibuGfQsKM6KUZBpz-1" value="0..*" style="edgeLabel;resizable=0;html=1;align=left;verticalAlign=bottom;labelBackgroundColor=none;" parent="WIyWlLk6GJQsqaUBKTNV-1" connectable="0" vertex="1">
          <mxGeometry x="499.9999999999998" y="363" as="geometry">
            <mxPoint x="-14" y="-140" as="offset" />
          </mxGeometry>
        </mxCell>
        <mxCell id="SCCpibuGfQsKM6KUZBpz-5" style="edgeStyle=orthogonalEdgeStyle;rounded=0;orthogonalLoop=1;jettySize=auto;html=1;endArrow=open;endFill=0;" parent="WIyWlLk6GJQsqaUBKTNV-1" source="rKdaXFloPdclXVX59-gg-72" target="zkfFHV4jXpPFQw0GAbJ--13" edge="1">
          <mxGeometry relative="1" as="geometry">
            <Array as="points">
              <mxPoint x="630" y="743" />
              <mxPoint x="630" y="480" />
            </Array>
          </mxGeometry>
        </mxCell>
        <mxCell id="SCCpibuGfQsKM6KUZBpz-6" value="0..*" style="edgeLabel;resizable=0;html=1;align=left;verticalAlign=bottom;labelBackgroundColor=none;" parent="WIyWlLk6GJQsqaUBKTNV-1" connectable="0" vertex="1">
          <mxGeometry x="569.9999999999998" y="500" as="geometry" />
        </mxCell>
        <mxCell id="SCCpibuGfQsKM6KUZBpz-7" value="0..1" style="edgeLabel;resizable=0;html=1;align=left;verticalAlign=bottom;labelBackgroundColor=none;" parent="WIyWlLk6GJQsqaUBKTNV-1" connectable="0" vertex="1">
          <mxGeometry x="339.9999999999998" y="740" as="geometry" />
        </mxCell>
        <mxCell id="SCCpibuGfQsKM6KUZBpz-17" style="edgeStyle=orthogonalEdgeStyle;rounded=0;orthogonalLoop=1;jettySize=auto;html=1;entryX=0.994;entryY=0.17;entryDx=0;entryDy=0;endArrow=blockThin;endFill=0;endSize=10;entryPerimeter=0;" parent="WIyWlLk6GJQsqaUBKTNV-1" source="SCCpibuGfQsKM6KUZBpz-10" target="zkfFHV4jXpPFQw0GAbJ--13" edge="1">
          <mxGeometry relative="1" as="geometry">
            <Array as="points">
              <mxPoint x="970" y="482" />
              <mxPoint x="970" y="390" />
              <mxPoint x="600" y="390" />
            </Array>
          </mxGeometry>
        </mxCell>
        <mxCell id="SCCpibuGfQsKM6KUZBpz-10" value="&lt;b&gt;Player&lt;/b&gt;" style="swimlane;fontStyle=0;childLayout=stackLayout;horizontal=1;startSize=26;fillColor=none;horizontalStack=0;resizeParent=1;resizeParentMax=0;resizeLast=0;collapsible=1;marginBottom=0;whiteSpace=wrap;html=1;" parent="WIyWlLk6GJQsqaUBKTNV-1" vertex="1">
          <mxGeometry x="1000" y="430" width="140" height="122" as="geometry" />
        </mxCell>
        <mxCell id="SCCpibuGfQsKM6KUZBpz-11" value="- position: String" style="text;strokeColor=none;fillColor=none;align=left;verticalAlign=top;spacingLeft=4;spacingRight=4;overflow=hidden;rotatable=0;points=[[0,0.5],[1,0.5]];portConstraint=eastwest;whiteSpace=wrap;html=1;" parent="SCCpibuGfQsKM6KUZBpz-10" vertex="1">
          <mxGeometry y="26" width="140" height="26" as="geometry" />
        </mxCell>
        <mxCell id="SCCpibuGfQsKM6KUZBpz-12" value="- number: type" style="text;strokeColor=none;fillColor=none;align=left;verticalAlign=top;spacingLeft=4;spacingRight=4;overflow=hidden;rotatable=0;points=[[0,0.5],[1,0.5]];portConstraint=eastwest;whiteSpace=wrap;html=1;" parent="SCCpibuGfQsKM6KUZBpz-10" vertex="1">
          <mxGeometry y="52" width="140" height="26" as="geometry" />
        </mxCell>
        <mxCell id="SCCpibuGfQsKM6KUZBpz-18" value="" style="line;strokeWidth=1;fillColor=none;align=left;verticalAlign=middle;spacingTop=-1;spacingLeft=3;spacingRight=3;rotatable=0;labelPosition=right;points=[];portConstraint=eastwest;strokeColor=inherit;" parent="SCCpibuGfQsKM6KUZBpz-10" vertex="1">
          <mxGeometry y="78" width="140" height="8" as="geometry" />
        </mxCell>
        <mxCell id="SCCpibuGfQsKM6KUZBpz-19" value="+ createTeam(Team): void" style="text;strokeColor=none;fillColor=none;align=left;verticalAlign=middle;spacingLeft=4;spacingRight=4;overflow=hidden;rotatable=0;points=[[0,0.5],[1,0.5]];portConstraint=eastwest;whiteSpace=wrap;html=1;" parent="SCCpibuGfQsKM6KUZBpz-10" vertex="1">
          <mxGeometry y="86" width="140" height="36" as="geometry" />
        </mxCell>
        <mxCell id="RC9Twt8qCFCEzSC5DdKY-0" value="1..*" style="edgeLabel;resizable=0;html=1;align=left;verticalAlign=bottom;labelBackgroundColor=none;rotation=0;" parent="WIyWlLk6GJQsqaUBKTNV-1" connectable="0" vertex="1">
          <mxGeometry x="160" y="380" as="geometry">
            <mxPoint x="-4" y="0.9999999999999992" as="offset" />
          </mxGeometry>
        </mxCell>
        <mxCell id="RC9Twt8qCFCEzSC5DdKY-1" value="0..*" style="edgeLabel;resizable=0;html=1;align=left;verticalAlign=bottom;labelBackgroundColor=none;" parent="WIyWlLk6GJQsqaUBKTNV-1" connectable="0" vertex="1">
          <mxGeometry x="80" y="580" as="geometry">
            <mxPoint x="34" y="46" as="offset" />
          </mxGeometry>
        </mxCell>
        <mxCell id="J3CVPb86uNjHVDzg0pc1-4" style="edgeStyle=orthogonalEdgeStyle;rounded=0;orthogonalLoop=1;jettySize=auto;html=1;startArrow=diamondThin;startFill=1;endArrow=none;endFill=0;startSize=20;" edge="1" parent="WIyWlLk6GJQsqaUBKTNV-1" source="J3CVPb86uNjHVDzg0pc1-0" target="rKdaXFloPdclXVX59-gg-48">
          <mxGeometry relative="1" as="geometry">
            <Array as="points">
              <mxPoint x="910" y="960" />
              <mxPoint x="100" y="960" />
              <mxPoint x="100" y="603" />
            </Array>
          </mxGeometry>
        </mxCell>
        <mxCell id="J3CVPb86uNjHVDzg0pc1-26" style="edgeStyle=orthogonalEdgeStyle;rounded=0;orthogonalLoop=1;jettySize=auto;html=1;startArrow=open;startFill=0;endArrow=none;endFill=0;" edge="1" parent="WIyWlLk6GJQsqaUBKTNV-1" source="J3CVPb86uNjHVDzg0pc1-0" target="J3CVPb86uNjHVDzg0pc1-19">
          <mxGeometry relative="1" as="geometry" />
        </mxCell>
        <mxCell id="J3CVPb86uNjHVDzg0pc1-0" value="&lt;b&gt;Food&lt;/b&gt;" style="swimlane;fontStyle=0;childLayout=stackLayout;horizontal=1;startSize=26;fillColor=none;horizontalStack=0;resizeParent=1;resizeParentMax=0;resizeLast=0;collapsible=1;marginBottom=0;whiteSpace=wrap;html=1;" vertex="1" parent="WIyWlLk6GJQsqaUBKTNV-1">
          <mxGeometry x="840" y="720" width="140" height="104" as="geometry" />
        </mxCell>
        <mxCell id="J3CVPb86uNjHVDzg0pc1-1" value="- name: String" style="text;strokeColor=none;fillColor=none;align=left;verticalAlign=top;spacingLeft=4;spacingRight=4;overflow=hidden;rotatable=0;points=[[0,0.5],[1,0.5]];portConstraint=eastwest;whiteSpace=wrap;html=1;" vertex="1" parent="J3CVPb86uNjHVDzg0pc1-0">
          <mxGeometry y="26" width="140" height="26" as="geometry" />
        </mxCell>
        <mxCell id="J3CVPb86uNjHVDzg0pc1-2" value="- price: double" style="text;strokeColor=none;fillColor=none;align=left;verticalAlign=top;spacingLeft=4;spacingRight=4;overflow=hidden;rotatable=0;points=[[0,0.5],[1,0.5]];portConstraint=eastwest;whiteSpace=wrap;html=1;" vertex="1" parent="J3CVPb86uNjHVDzg0pc1-0">
          <mxGeometry y="52" width="140" height="26" as="geometry" />
        </mxCell>
        <mxCell id="J3CVPb86uNjHVDzg0pc1-3" value="- chefNationality: String" style="text;strokeColor=none;fillColor=none;align=left;verticalAlign=top;spacingLeft=4;spacingRight=4;overflow=hidden;rotatable=0;points=[[0,0.5],[1,0.5]];portConstraint=eastwest;whiteSpace=wrap;html=1;" vertex="1" parent="J3CVPb86uNjHVDzg0pc1-0">
          <mxGeometry y="78" width="140" height="26" as="geometry" />
        </mxCell>
        <mxCell id="J3CVPb86uNjHVDzg0pc1-22" value="1..*" style="edgeLabel;resizable=0;html=1;align=left;verticalAlign=bottom;labelBackgroundColor=none;" connectable="0" vertex="1" parent="WIyWlLk6GJQsqaUBKTNV-1">
          <mxGeometry x="619.9999999999998" y="456" as="geometry">
            <mxPoint x="-217" y="-301" as="offset" />
          </mxGeometry>
        </mxCell>
        <mxCell id="J3CVPb86uNjHVDzg0pc1-23" value="1" style="edgeLabel;resizable=0;html=1;align=left;verticalAlign=bottom;labelBackgroundColor=none;" connectable="0" vertex="1" parent="WIyWlLk6GJQsqaUBKTNV-1">
          <mxGeometry x="1149.9999999999998" y="363" as="geometry">
            <mxPoint x="-217" y="-301" as="offset" />
          </mxGeometry>
        </mxCell>
        <mxCell id="J3CVPb86uNjHVDzg0pc1-24" value="0..*" style="edgeLabel;resizable=0;html=1;align=left;verticalAlign=bottom;labelBackgroundColor=none;" connectable="0" vertex="1" parent="WIyWlLk6GJQsqaUBKTNV-1">
          <mxGeometry x="140" y="420" as="geometry">
            <mxPoint x="34" y="46" as="offset" />
          </mxGeometry>
        </mxCell>
        <mxCell id="J3CVPb86uNjHVDzg0pc1-25" value="1" style="edgeLabel;resizable=0;html=1;align=left;verticalAlign=bottom;labelBackgroundColor=none;" connectable="0" vertex="1" parent="WIyWlLk6GJQsqaUBKTNV-1">
          <mxGeometry x="860" y="799" as="geometry">
            <mxPoint x="34" y="46" as="offset" />
          </mxGeometry>
        </mxCell>
        <mxCell id="J3CVPb86uNjHVDzg0pc1-27" value="0..1" style="edgeLabel;resizable=0;html=1;align=left;verticalAlign=bottom;labelBackgroundColor=none;" connectable="0" vertex="1" parent="WIyWlLk6GJQsqaUBKTNV-1">
          <mxGeometry x="930" y="705" as="geometry">
            <mxPoint x="-18" y="14" as="offset" />
          </mxGeometry>
        </mxCell>
        <mxCell id="J3CVPb86uNjHVDzg0pc1-28" value="1" style="edgeLabel;resizable=0;html=1;align=left;verticalAlign=bottom;labelBackgroundColor=none;" connectable="0" vertex="1" parent="WIyWlLk6GJQsqaUBKTNV-1">
          <mxGeometry x="840" y="550" as="geometry">
            <mxPoint x="34" y="46" as="offset" />
          </mxGeometry>
        </mxCell>
      </root>
    </mxGraphModel>
  </diagram>
</mxfile>
